HIERARCHY
ROOT root
{
	OFFSET 0.000000 0.000000 0.000000
	CHANNELS 6 Xposition Yposition Zposition Zrotation Yrotation Xrotation
	JOINT lhip
	{
		OFFSET 0.058581 -0.082280 -0.017664
		CHANNELS 3 Zrotation Yrotation Xrotation
		JOINT lknee
		{
			OFFSET 0.043451 -0.386469 0.008037
			CHANNELS 3 Zrotation Yrotation Xrotation
			JOINT lankle
			{
				OFFSET -0.014790 -0.426874 -0.037428
				CHANNELS 3 Zrotation Yrotation Xrotation
				JOINT ltoe
				{
					OFFSET 0.041054 -0.060286 0.122042
					CHANNELS 3 Zrotation Yrotation Xrotation
					End Site
					{
						OFFSET 0.000000 0.000000 0.000000
					}
				}
			}
		}
	}
	JOINT rhip
	{
		OFFSET -0.060310 -0.090513 -0.013543
		CHANNELS 3 Zrotation Yrotation Xrotation
		JOINT rknee
		{
			OFFSET -0.043257 -0.383688 -0.004843
			CHANNELS 3 Zrotation Yrotation Xrotation
			JOINT rankle
			{
				OFFSET 0.019056 -0.420046 -0.034562
				CHANNELS 3 Zrotation Yrotation Xrotation
				JOINT rtoe
				{
					OFFSET -0.034840 -0.062106 0.130323
					CHANNELS 3 Zrotation Yrotation Xrotation
					End Site
					{
						OFFSET 0.000000 0.000000 0.000000
					}
				}
			}
		}
	}
	JOINT lowerback
	{
		OFFSET 0.004439 0.124404 -0.038385
		CHANNELS 3 Zrotation Yrotation Xrotation
		JOINT upperback
		{
			OFFSET 0.004488 0.137956 0.026820
			CHANNELS 3 Zrotation Yrotation Xrotation
			JOINT chest
			{
				OFFSET -0.002265 0.056032 0.002855
				CHANNELS 3 Zrotation Yrotation Xrotation
				JOINT lowerneck
				{
					OFFSET -0.013390 0.211636 -0.033468
					CHANNELS 3 Zrotation Yrotation Xrotation
					JOINT upperneck
					{
						OFFSET 0.010113 0.088937 0.050410
						CHANNELS 3 Zrotation Yrotation Xrotation
						End Site
						{
							OFFSET 0.000000 0.000000 0.000000
						}
					}
				}
				JOINT lclavicle
				{
					OFFSET 0.071702 0.114000 -0.018898
					CHANNELS 3 Zrotation Yrotation Xrotation
					JOINT lshoulder
					{
						OFFSET 0.122921 0.045205 -0.019046
						CHANNELS 3 Zrotation Yrotation Xrotation
						JOINT lelbow
						{
							OFFSET 0.255332 -0.015649 -0.022946
							CHANNELS 3 Zrotation Yrotation Xrotation
							JOINT lwrist
							{
								OFFSET 0.265709 0.012698 -0.007375
								CHANNELS 3 Zrotation Yrotation Xrotation
								End Site
								{
									OFFSET 0.000000 0.000000 0.000000
								}
							}
						}
					}
				}
				JOINT rclavicle
				{
					OFFSET -0.082954 0.112472 -0.023707
					CHANNELS 3 Zrotation Yrotation Xrotation
					JOINT rshoulder
					{
						OFFSET -0.113228 0.046853 -0.008472
						CHANNELS 3 Zrotation Yrotation Xrotation
						JOINT relbow
						{
							OFFSET -0.260127 -0.014369 -0.031269
							CHANNELS 3 Zrotation Yrotation Xrotation
							JOINT rwrist
							{
								OFFSET -0.269108 0.006794 -0.006027
								CHANNELS 3 Zrotation Yrotation Xrotation
								End Site
								{
									OFFSET 0.000000 0.000000 0.000000
								}
							}
						}
					}
				}
			}
		}
	}
}
MOTION
Frames: 16
Frame Time: 0.033333
-0.924837 -0.304671 0.974117 176.550868 1.782635 89.308150 12.515704 5.173664 -1.691258 -3.068300 -5.228917 2.946271 1.336954 7.522488 -8.307863 0.000000 -0.000000 0.000000 -8.782092 -6.897019 -9.782918 0.087417 -5.313527 18.318050 4.362330 -6.469057 -7.430373 0.000000 -0.000000 0.000000 1.707047 1.377455 8.886870 3.742892 -1.580152 1.321951 -2.087292 -0.769724 -4.529269 1.920553 -0.151910 -5.773045 1.467448 -2.180645 8.210382 -31.546376 -5.527182 3.223241 -55.426121 -6.482322 13.628532 11.429377 -17.216136 -3.030730 6.290196 -9.284636 0.248410 27.591418 9.560477 4.678626 49.945227 5.596674 14.213201 -8.859005 18.140858 1.026573 1.865971 7.240745 9.031017 
-0.924550 -0.304063 0.973684 176.550677 1.779042 89.077460 12.546484 5.051951 -1.803833 -3.173085 -5.310166 3.729441 1.563930 7.655655 -8.672877 0.000000 -0.000000 0.000000 -8.830669 -6.762530 -9.665816 0.193016 -5.144611 18.660134 4.421875 -6.722653 -7.747004 0.000000 -0.000000 0.000000 1.801245 1.410476 9.029206 3.619924 -1.523157 1.507264 -2.043666 -0.732617 -4.495932 1.995150 -0.183156 -5.888187 1.347217 -2.031606 8.541191 -31.526705 -5.513689 3.222068 -55.458420 -6.601188 13.647830 11.482859 -17.314003 -2.953157 6.396491 -9.227303 -0.022952 27.541086 9.597196 4.533888 50.020427 5.501574 14.382879 -8.999458 17.978180 1.121447 1.942563 7.220287 8.880207 
-0.924039 -0.303286 0.973301 176.535644 1.798431 88.857533 12.635525 5.012590 -1.834347 -3.269250 -5.336727 4.361780 1.645310 7.697828 -8.974823 0.000000 -0.000000 0.000000 -8.817498 -6.750711 -9.489424 0.157025 -5.217072 18.895834 4.338023 -6.596544 -7.946309 0.000000 -0.000000 0.000000 1.917316 1.460584 9.211423 3.548762 -1.495994 1.545122 -2.066046 -0.721155 -4.436103 2.063474 -0.045767 -5.725973 1.281486 -1.919431 8.728480 -31.501461 -5.473097 3.228610 -55.442269 -6.670334 13.484146 11.494130 -17.330593 -3.048400 6.362436 -9.189379 -0.178795 27.587953 9.625516 4.528875 49.985295 5.505186 14.398473 -9.022698 17.853379 1.129857 2.200087 7.173455 8.946237 
-0.923478 -0.301871 0.972786 176.494269 1.768601 88.620781 12.658951 4.945860 -1.855696 -3.315206 -5.291958 5.088232 1.675971 7.837839 -9.369100 0.000000 -0.000000 0.000000 -8.823353 -6.658209 -9.282802 0.029129 -5.307119 19.187288 4.278284 -6.503104 -8.154455 0.000000 -0.000000 0.000000 1.994442 1.464662 9.462198 3.453884 -1.496017 1.442831 -2.049535 -0.646913 -4.381809 2.051475 0.124623 -5.330442 1.227569 -1.589154 9.244134 -31.464236 -5.370699 3.269577 -55.473748 -6.681441 13.312472 11.518522 -17.184143 -3.172557 6.481297 -8.992148 -0.473296 27.608264 9.683574 4.707709 49.948010 5.585645 14.395599 -8.967763 17.721444 1.040550 2.156471 7.058914 8.833226 
-0.923376 -0.301351 0.972619 176.488068 1.726773 88.572402 12.605639 4.905511 -1.875683 -3.300592 -5.294582 5.288119 1.699070 7.925574 -9.499477 0.000000 -0.000000 0.000000 -8.874963 -6.601226 -9.268510 0.020327 -5.300920 19.327709 4.267835 -6.538098 -8.220647 0.000000 -0.000000 0.000000 1.972907 1.441642 9.515770 3.425332 -1.500341 1.396650 -2.036422 -0.612508 -4.364488 2.030488 0.132670 -5.187451 1.232008 -1.463642 9.464022 -31.434465 -5.341088 3.284640 -55.516646 -6.679061 13.300860 11.542718 -17.077954 -3.186426 6.512383 -8.941193 -0.532941 27.606042 9.700600 4.772807 49.951180 5.617490 14.396256 -8.962941 17.687690 1.008518 2.063080 7.026912 8.794047 
-0.923044 -0.300303 0.972291 176.498931 1.631311 88.520063 12.493057 4.818330 -1.975919 -3.289537 -5.358158 5.700359 1.774396 8.117803 -9.746701 0.000000 -0.000000 0.000000 -9.033078 -6.504849 -9.306790 0.125994 -5.240033 19.641536 4.232617 -6.690278 -8.352761 0.000000 -0.000000 0.000000 1.874039 1.380155 9.592706 3.410616 -1.506010 1.301650 -2.012726 -0.553249 -4.306209 1.998456 0.088627 -4.947781 1.217410 -1.244856 9.942361 -31.429819 -5.309291 3.302806 -55.540033 -6.666816 13.322153 11.607620 -16.827417 -3.154110 6.473862 -8.901189 -0.510060 27.628413 9.699202 4.809911 49.938830 5.643169 14.424052 -9.016208 17.692880 1.028191 1.989346 7.001415 8.859788 
-0.922212 -0.299459 0.972058 176.505694 1.640133 88.521653 12.564337 4.791576 -2.148645 -3.355331 -5.410921 6.137543 1.837711 8.203487 -9.936270 0.000000 -0.000000 0.000000 -9.048897 -6.516254 -9.394689 0.248048 -5.201266 19.911254 4.199756 -6.749640 -8.460947 0.000000 -0.000000 0.000000 1.849274 1.374092 9.651884 3.484317 -1.511059 1.232159 -2.019217 -0.564490 -4.258802 1.998449 0.124207 -4.783464 1.082410 -1.181660 10.441737 -31.481621 -5.315155 3.300794 -55.416291 -6.630481 13.347791 11.563184 -16.641034 -3.058166 6.396017 -8.892038 -0.356519 27.650894 9.660768 4.736556 49.877045 5.664372 14.483604 -9.074363 17.765676 1.125776 2.178793 7.026158 9.070723 
-0.921139 -0.298816 0.971960 176.499169 1.728350 88.569670 12.747533 4.779079 -2.333364 -3.431607 -5.403636 6.503360 1.859066 8.241076 -10.079529 0.000000 -0.000000 0.000000 -8.916812 -6.569556 -9.470836 0.285092 -5.218493 20.055481 4.212739 -6.715975 -8.536586 0.000000 -0.000000 0.000000 1.919507 1.396679 9.717701 3.533080 -1.522441 1.149465 -2.006128 -0.616638 -4.257992 1.989640 0.183370 -4.685747 0.920397 -1.180705 11.101166 -31.464434 -5.315559 3.348236 -55.305547 -6.611265 13.375104 11.428698 -16.541489 -2.931494 6.479255 -8.831198 -0.319520 27.623106 9.626196 4.733094 49.839923 5.743255 14.538901 -9.069189 17.884561 1.183582 2.299758 7.018917 9.072031 
-0.920366 -0.298060 0.972008 176.506528 1.784739 88.639249 12.850007 4.746784 -2.463894 -3.454736 -5.388542 6.719778 1.891460 8.308046 -10.190700 0.000000 -0.000000 0.000000 -8.809574 -6.574618 -9.485372 0.281189 -5.247832 20.060280 4.240189 -6.734595 -8.575122 0.000000 -0.000000 0.000000 1.993506 1.374543 9.759011 3.504930 -1.526179 1.100418 -1.970680 -0.673503 -4.323290 1.953472 0.139861 -4.571358 0.822182 -1.102091 11.895070 -31.420004 -5.289073 3.464263 -55.257309 -6.634921 13.403593 11.316400 -16.464620 -2.854602 6.686158 -8.767005 -0.446866 27.600279 9.610058 4.820620 49.854754 5.866318 14.573881 -9.040282 17.972916 1.118882 2.229677 7.034178 8.806360 
-0.919923 -0.297124 0.972217 176.534190 1.785143 88.720345 12.842643 4.723759 -2.517720 -3.424729 -5.404330 6.763209 1.920757 8.366646 -10.229732 0.000000 -0.000000 0.000000 -8.789280 -6.539490 -9.437950 0.297932 -5.283018 19.938901 4.235316 -6.825696 -8.566128 0.000000 -0.000000 0.000000 2.025869 1.294052 9.766307 3.468485 -1.516286 1.075886 -1.951065 -0.710650 -4.400343 1.900612 0.016855 -4.373635 0.751837 -0.953108 12.631786 -31.430356 -5.261909 3.602051 -55.210187 -6.694301 13.430466 11.252776 -16.378907 -2.822917 6.853565 -8.755505 -0.586825 27.622214 9.590346 4.875711 49.868979 5.972995 14.605899 -9.054406 18.006266 1.034106 2.148940 7.118629 8.595345 
-0.919372 -0.296226 0.972530 176.561136 1.800617 88.835022 12.858514 4.752617 -2.508146 -3.369404 -5.406683 6.610513 1.867664 8.331015 -10.155027 0.000000 -0.000000 0.000000 -8.754514 -6.535320 -9.380025 0.334197 -5.349698 19.713941 4.218969 -6.877449 -8.498445 0.000000 -0.000000 0.000000 2.053255 1.225305 9.758731 3.493959 -1.526330 1.027426 -1.960489 -0.707757 -4.446703 1.868268 -0.052308 -4.135992 0.634618 -0.887662 13.202530 -31.488396 -5.259589 3.717223 -55.121059 -6.762103 13.455439 11.162154 -16.366590 -2.703333 6.952839 -8.752564 -0.640561 27.627412 9.524117 4.870315 49.831213 6.065976 14.626123 -9.058328 18.048102 1.068406 2.122270 7.170413 8.634215 
-0.918576 -0.295521 0.972875 176.577340 1.856252 88.986554 12.943839 4.805810 -2.433205 -3.293598 -5.355495 6.246476 1.738504 8.218725 -9.989997 0.000000 -0.000000 0.000000 -8.658302 -6.578014 -9.340866 0.370619 -5.441199 19.428114 4.234612 -6.835884 -8.389934 0.000000 -0.000000 0.000000 2.088658 1.208311 9.777880 3.543983 -1.574552 0.949728 -1.956545 -0.663195 -4.483884 1.879184 -0.037372 -3.957853 0.503669 -0.986852 13.661087 -31.526354 -5.266446 3.784900 -55.052203 -6.833053 13.491251 11.032785 -16.485455 -2.454485 7.082230 -8.733809 -0.660739 27.560947 9.418041 4.902648 49.755520 6.193270 14.604458 -8.972530 18.146827 1.174447 2.003986 7.112515 8.736678 
-0.917903 -0.294945 0.973205 176.610649 1.896797 89.164639 12.997243 4.828862 -2.341677 -3.196633 -5.310340 5.775291 1.636690 8.131900 -9.803287 0.000000 -0.000000 0.000000 -8.587698 -6.623156 -9.311596 0.418983 -5.532354 19.118923 4.262286 -6.785090 -8.271811 0.000000 -0.000000 0.000000 2.100986 1.182351 9.817454 3.547363 -1.614809 0.887150 -1.911823 -0.615013 -4.528071 1.897909 -0.089933 -3.830594 0.453671 -1.096739 14.027203 -31.544715 -5.270256 3.833132 -55.066302 -6.937622 13.537179 10.991874 -16.688987 -2.262519 7.240207 -8.751135 -0.731296 27.456517 9.356175 4.990494 49.740782 6.333880 14.553621 -8.918796 18.219592 1.211347 1.830239 7.066989 8.672785 
-0.917563 -0.294471 0.973534 176.661894 1.900811 89.340206 12.979522 4.826079 -2.290384 -3.103509 -5.313541 5.362033 1.610444 8.096234 -9.642446 0.000000 -0.000000 0.000000 -8.574196 -6.646272 -9.281053 0.457916 -5.621815 18.822845 4.272401 -6.772976 -8.161309 0.000000 -0.000000 0.000000 2.109217 1.114878 9.888939 3.503639 -1.603592 0.832885 -1.860145 -0.609838 -4.527806 1.893563 -0.268734 -3.668692 0.488761 -1.107953 14.220017 -31.597525 -5.307673 3.907141 -55.114344 -7.098782 13.563709 11.103067 -16.919884 -2.277143 7.342099 -8.801665 -0.861630 27.362035 9.406461 5.046320 49.843760 6.449161 14.527775 -9.047814 18.159969 1.157410 1.776861 7.118216 8.465183 
-0.917355 -0.294207 0.973867 176.703359 1.897169 89.493236 12.949205 4.849912 -2.301772 -3.038567 -5.346468 5.085338 1.614897 8.074594 -9.515474 0.000000 -0.000000 0.000000 -8.555675 -6.654801 -9.273836 0.460205 -5.692255 18.576798 4.276301 -6.791264 -8.071283 0.000000 -0.000000 0.000000 2.144600 1.040359 10.027459 3.452740 -1.540912 0.779466 -1.836132 -0.651689 -4.465931 1.879690 -0.503243 -3.497577 0.539738 -1.097531 14.249427 -31.683378 -5.430377 4.011643 -55.101657 -7.299928 13.581623 11.241806 -17.177914 -2.413225 7.433974 -8.779670 -0.998525 27.289275 9.546497 5.031274 49.947990 6.522210 14.575658 -9.237090 18.061631 1.105817 1.804181 7.157345 8.235751 
-0.917124 -0.294154 0.974226 176.754844 1.900175 89.628479 12.929814 4.898992 -2.378260 -2.987174 -5.376599 4.929585 1.594122 8.032607 -9.433090 0.000000 -0.000000 0.000000 -8.495921 -6.679196 -9.295106 0.429532 -5.714926 18.378097 4.278149 -6.829972 -8.004989 0.000000 -0.000000 0.000000 2.176047 1.001045 10.243033 3.432746 -1.518256 0.789292 -1.819215 -0.680197 -4.434370 1.847895 -0.703912 -3.420433 0.581669 -1.182716 14.246699 -31.782051 -5.645774 4.107206 -55.011019 -7.496438 13.625146 11.281448 -17.455941 -2.511373 7.620732 -8.660207 -1.085297 27.244402 9.703977 5.028734 49.873158 6.556229 14.646281 -9.247911 18.138024 1.098723 1.705642 7.075338 8.072800 
